<svg width="170" height="44" viewBox="0 0 170 44" fill="none" xmlns="http://www.w3.org/2000/svg">
<path fill-rule="evenodd" clip-rule="evenodd" d="M40.5038 31.4045V12.5977H51.3072C56.2573 12.5977 58.0815 14.2765 58.0815 18.7243C58.0815 23.1722 56.2573 24.8176 51.3072 24.8176H44.1193V31.4071L40.5038 31.4045ZM44.1193 21.5807H50.9697C53.5678 21.5807 54.4508 20.8763 54.4508 18.7192C54.4508 16.5621 53.5678 15.8268 50.9697 15.8268H44.1193V21.5807ZM60.6568 31.4045V12.5977H71.247C75.9941 12.5977 77.7423 14.2534 77.7423 18.5778C77.7423 22.2312 76.499 23.9435 73.2641 24.3857L78.6531 31.4045H74.2384L69.0118 24.4962H64.1911V31.4045H60.6568ZM64.1911 21.2979H70.9553C73.3834 21.2979 74.213 20.5935 74.213 18.5958C74.213 16.539 73.3504 15.8165 70.9553 15.8165H64.1911V21.2979ZM80.381 31.4045V12.5977H96.4592V15.8294H83.9457V20.2644H94.5817V23.4653H83.9457V28.183H96.685V31.4045H80.381ZM99.6637 31.4045V12.5977H115.952V15.8294H103.312V20.2644H114.05V23.4653H103.315V31.4045H99.6637ZM118.102 31.4045V12.5977H134.192V15.8294H121.676V20.2644H132.333V23.4653H121.676V28.183H134.418V31.4045H118.102ZM153.709 12.5977H169.992V15.8808H163.218V31.3993H159.62V15.8757H146.206C139.736 15.8757 139.724 15.8191 139.724 21.9998C139.724 28.1805 139.724 28.1856 146.206 28.1856H152.042V31.4071H146.206C136.121 31.4071 136.121 30.7952 136.121 21.9998C136.121 13.2044 135.974 12.5977 146.206 12.5977H153.709Z" fill="#090422"/>
<path fill-rule="evenodd" clip-rule="evenodd" d="M27.0008 20.5039L13.4928 13.6445V27.5845L27.0008 20.5039Z" fill="#0052FF"/>
<path fill-rule="evenodd" clip-rule="evenodd" d="M15.213 26.6814L13.4928 16.3203V27.5838L15.213 26.6814Z" fill="#003EBF"/>
<path fill-rule="evenodd" clip-rule="evenodd" d="M25.2679 19.617L13.4928 13.6445V15.1666L25.2679 19.617Z" fill="#002980"/>
<path fill-rule="evenodd" clip-rule="evenodd" d="M0.811904 43.8563L13.2315 37.7528C13.4015 37.6473 13.4979 37.6216 13.503 37.3183C13.503 37.29 13.503 13.6445 13.503 13.6445C8.25097 16.3029 0.87026 20.036 0.230885 20.378C0.0279092 20.4937 0 20.5888 0 20.7379V43.2444C0 43.7535 0.0279092 44.2574 0.811904 43.8563Z" fill="url(#paint0_linear_4898_18509)"/>
<path fill-rule="evenodd" clip-rule="evenodd" d="M27.0009 7.0909V20.4986C27.0009 20.4986 1.79892 7.71308 0.926121 7.26573C0.345102 6.95721 0.345102 6.66668 0.926121 6.33503C1.46147 6.03165 11.6889 0.866521 13.2569 0.0695123C13.3228 0.0268903 13.3987 0.00297328 13.4768 0.000259737C13.5549 -0.0024538 13.6323 0.0161357 13.7009 0.0540864L26.7472 6.68468C26.8292 6.71475 26.8989 6.77195 26.9449 6.84704C26.991 6.92214 27.0107 7.01076 27.0009 7.09861V7.0909Z" fill="url(#paint1_linear_4898_18509)"/>
<defs>
<linearGradient id="paint0_linear_4898_18509" x1="1.73697" y1="19.4854" x2="22.7466" y2="27.2731" gradientUnits="userSpaceOnUse">
<stop stop-color="#22D7FF"/>
<stop offset="1" stop-color="#0052FF"/>
</linearGradient>
<linearGradient id="paint1_linear_4898_18509" x1="7.16415e+07" y1="-2.03592e+07" x2="7.16423e+07" y2="-2.03576e+07" gradientUnits="userSpaceOnUse">
<stop stop-color="#22D7FF"/>
<stop offset="1" stop-color="#0052FF"/>
</linearGradient>
</defs>
</svg>
