<svg viewBox="0 0 778 222" fill="none" xmlns="http://www.w3.org/2000/svg" class="h-5"><g clip-path="url(#clip0_17_17)"><path d="M328.717 221.566C312.311 221.566 298.092 218.051 286.061 211.023C274.029 203.994 264.696 194.161 258.061 181.523C251.498 168.885 248.217 154.118 248.217 137.22C248.217 120.323 251.498 105.52 258.061 92.8113C264.696 80.1027 274.029 70.234 286.061 63.2052C298.092 56.1764 312.311 52.662 328.717 52.662C345.123 52.662 359.342 56.1764 371.373 63.2052C383.404 70.234 392.701 80.1027 399.264 92.8113C405.899 105.52 409.217 120.323 409.217 137.22C409.217 154.118 405.899 168.885 399.264 181.523C392.701 194.161 383.404 203.994 371.373 211.023C359.342 218.051 345.123 221.566 328.717 221.566ZM328.936 190.682C337.831 190.682 345.269 188.303 351.248 183.546C357.227 178.719 361.675 172.258 364.592 164.164C367.581 156.07 369.076 147.054 369.076 137.114C369.076 127.103 367.581 118.051 364.592 109.957C361.675 101.792 357.227 95.2962 351.248 90.4683C345.269 85.6405 337.831 83.2266 328.936 83.2266C319.821 83.2266 312.238 85.6405 306.186 90.4683C300.206 95.2962 295.722 101.792 292.732 109.957C289.816 118.051 288.357 127.103 288.357 137.114C288.357 147.054 289.816 156.07 292.732 164.164C295.722 172.258 300.206 178.719 306.186 183.546C312.238 188.303 319.821 190.682 328.936 190.682Z" fill="currentColor"></path><path d="M474.416 0.265625C478.834 0.265625 482.416 3.84735 482.416 8.26562V210.371C482.416 214.789 478.834 218.371 474.416 218.371H450.822C446.404 218.371 442.822 214.789 442.822 210.371V8.26562C442.822 3.84734 446.404 0.265625 450.822 0.265625H474.416Z" fill="currentColor"></path><path d="M599.021 54.7919C603.44 54.7919 607.021 58.3737 607.021 62.7919V76.611C607.021 81.0293 603.44 84.611 599.021 84.611H518.443C514.025 84.611 510.443 81.0293 510.443 76.611V62.7919C510.443 58.3737 514.025 54.7919 518.443 54.7919H599.021ZM534.287 23.6012C534.287 19.1829 537.869 15.6012 542.287 15.6012H565.881C570.299 15.6012 573.881 19.1829 573.881 23.6012V169.169C573.881 174.352 574.683 178.328 576.287 181.097C577.964 183.795 580.152 185.641 582.85 186.635C585.548 187.629 588.537 188.126 591.818 188.126C594.297 188.126 596.558 187.948 598.6 187.593V187.593C601.244 187.149 603.893 188.809 604.473 191.427L608.529 209.75C609.413 213.744 607.127 217.726 603.14 218.641C602.461 218.797 601.75 218.955 601.006 219.116C597.141 219.968 592.402 220.465 586.787 220.607C576.87 220.891 567.938 219.436 559.99 216.241C552.042 212.975 545.735 207.934 541.068 201.118C536.475 194.303 534.214 185.783 534.287 175.559V23.6012Z" fill="currentColor"></path><path d="M688.478 221.672C677.833 221.672 668.244 219.826 659.713 216.134C651.255 212.372 644.546 206.834 639.588 199.521C634.702 192.208 632.26 183.191 632.26 172.471C632.26 163.241 634.01 155.609 637.51 149.574C641.01 143.539 645.786 138.711 651.838 135.09C657.89 131.47 664.708 128.736 672.291 126.89C679.947 124.973 687.859 123.589 696.025 122.737C705.869 121.743 713.853 120.855 719.978 120.074C726.103 119.222 730.551 117.944 733.322 116.241C736.166 114.466 737.588 111.732 737.588 108.04V107.401C737.588 99.3786 735.145 93.1663 730.26 88.7644C725.374 84.3625 718.338 82.1616 709.15 82.1616C699.452 82.1616 691.76 84.2205 686.072 88.3384C682.509 90.9516 679.68 93.865 677.586 97.0787C675.508 100.266 671.988 102.554 668.219 102.033L646.922 99.0879C642.08 98.4183 638.922 93.5675 640.952 89.1211C643.78 82.9289 647.518 77.5206 652.166 72.8964C658.874 66.1516 667.077 61.1107 676.775 57.7738C686.473 54.366 697.192 52.662 708.932 52.662C717.025 52.662 725.083 53.585 733.104 55.4309C741.124 57.2769 748.452 60.3298 755.088 64.5896C761.723 68.7785 767.046 74.4938 771.057 81.7356C775.14 88.9774 777.182 98.0296 777.182 108.892V210.371C777.182 214.789 773.6 218.371 769.182 218.371H747.119C742.701 218.371 739.119 214.789 739.119 210.371V195.9H737.807C735.4 200.444 732.01 204.704 727.635 208.68C723.333 212.585 717.9 215.744 711.338 218.158C704.848 220.501 697.228 221.672 688.478 221.672ZM698.76 193.344C706.708 193.344 713.598 191.818 719.432 188.765C725.265 185.641 729.749 181.523 732.885 176.411C736.093 171.299 737.697 165.726 737.697 159.691V147.377C737.697 144.574 734.049 142.416 731.354 143.184V143.184C728.437 144.036 725.156 144.782 721.51 145.421C717.864 146.06 714.255 146.628 710.682 147.125C707.109 147.622 704.01 148.048 701.385 148.403C695.478 149.184 690.192 150.461 685.525 152.236C680.859 154.011 677.176 156.496 674.479 159.691C671.781 162.815 670.432 166.862 670.432 171.832C670.432 178.932 673.093 184.292 678.416 187.913C683.739 191.534 690.52 193.344 698.76 193.344Z" fill="currentColor"></path><path d="M32.3373 9.45201C29.5889 5.77645 26.971 2.8369 23.0827 1.4515C18.6905 -0.507879 13.7622 -0.63449 9.14868 2.00549C7.42314 2.99288 6.27483 3.9091 5.31262 5.00055C-0.0482118 9.93573 -1.65748 17.8706 1.89747 24.5578L1.90916 24.552C2.72319 26.3182 3.52044 27.8226 4.49919 29.6533L50.8333 103.198L71.8931 136.626L80.0305 149.542L114.309 206.154C116.309 209.452 119.184 212.19 122.647 214.094C126.109 215.998 130.036 217 134.034 217C138.031 217 141.959 215.998 145.421 214.094C148.883 212.19 151.758 209.452 153.758 206.154L258.943 32.568C260.944 29.2708 261.998 25.5298 262 21.7211C262.002 17.9125 260.951 14.1705 258.953 10.8716C256.955 7.57275 254.08 4.8333 250.618 2.92875C247.156 1.0242 243.228 0.021766 239.231 0.0222512H160.223C128.919 0.0222512 105.833 13.1223 89.9482 38.6799L85.2906 46.3623L84.1262 48.2829L106.563 79.5229L120.369 56.7349C130.918 40.1523 142.902 34.1106 161.51 34.1106L216.648 34.1223L133.997 170.499L110.557 131.743L110.574 131.712L109.698 130.321L92.7573 102.311L71.3179 69.4096L46.7776 30.4623L32.3373 9.45201Z" fill="currentColor"></path><path d="M18.2142 159.003C17.6588 159.944 17.0052 161.273 16.6581 162.262C14.9674 167.511 16.1196 173.202 19.5767 177.436C19.7473 177.672 19.9266 177.882 20.1151 178.062C21.3446 179.424 22.8273 180.612 24.5433 181.557C32.7288 186.067 43.1377 183.347 47.8601 175.487C48.8306 174.429 49.6949 173.28 50.438 172.054L61.1656 154.34L39.5228 121.854L38.2661 123.927L35.7526 128.073L30.7257 136.364L18.2142 159.003Z" fill="currentColor"></path></g><defs><clipPath id="clip0_17_17"><rect width="778" height="222" fill="white"></rect></clipPath></defs></svg>